<svg width="224" height="96" viewBox="0 0 224 96" fill="none" xmlns="http://www.w3.org/2000/svg">
<path d="M129.052 0.323606C128.934 0.576713 126.961 5.48309 124.671 11.2072C122.382 16.9313 120.448 21.7014 120.369 21.7793C120.271 21.8766 96.6679 21.312 67.8948 20.5527C39.1216 19.7934 14.9664 19.1898 14.2165 19.2287C12.9732 19.2871 17.1964 20.2996 62.4677 30.7743C89.7608 37.0825 112.1 42.2809 112.14 42.3004C112.179 42.3393 111.331 44.5394 110.285 47.1873L108.351 51.9963L107.206 52.0547C106.555 52.0742 88.2017 51.6264 66.3752 51.0423L26.7085 49.991L14.0783 50.7503C7.13174 51.1591 1.09294 51.4901 0.67851 51.5096C0.244347 51.5096 -0.0516728 51.5485 0.00753118 51.6069C0.0667352 51.6653 6.14501 52.0547 13.506 52.4831C25.7021 53.2035 30.4778 53.3592 66.8291 54.3132C88.7938 54.8973 106.812 55.4035 106.851 55.462C106.89 55.5009 105.608 58.8497 103.989 62.9189L101.049 70.2979L100.615 73.7635C100.378 75.6716 100.22 77.2681 100.279 77.3265C100.319 77.3849 101.227 76.0415 102.292 74.3476C104.108 71.4466 104.384 70.8625 107.325 63.5224C109.042 59.2586 110.522 55.6956 110.601 55.5982C110.699 55.5204 128.224 55.9292 149.557 56.4938C170.89 57.0779 189.223 57.5257 190.329 57.4868L192.322 57.4479L154.609 48.7254C133.868 43.9164 116.876 39.964 116.837 39.9446C116.778 39.8667 122.501 25.5564 122.678 25.3812C122.856 25.2254 141.446 25.7316 141.623 25.9069C141.702 25.9653 143.715 29.1583 146.103 32.9744C148.511 36.7905 150.544 39.9251 150.662 39.9251C150.761 39.9251 153.642 36.9073 157.056 33.208L163.253 26.491L164.239 26.4325C164.792 26.3936 168.265 26.452 171.956 26.5688L178.665 26.7635L183.698 26.0821C186.461 25.7122 188.809 25.3812 188.908 25.3617C189.006 25.3228 186.697 24.8944 183.777 24.3882C178.527 23.4731 178.389 23.4537 172.942 23.3369C169.903 23.2784 167.219 23.1616 166.963 23.1032C166.548 22.9864 167.219 22.1881 173.85 15.0038C177.896 10.6036 181.251 7.00174 181.31 6.98227C181.369 6.94333 189.677 25.0502 199.762 47.1873L218.076 87.4313L220.977 91.6562C222.575 93.9731 223.917 95.9396 223.996 95.998C224.055 96.0759 223.463 93.8952 222.654 91.1695L221.194 86.2242L201.814 43.6633C191.138 20.2412 182.356 1.08293 182.277 1.08293C182.218 1.08293 177.679 5.9309 172.232 11.8302C166.785 17.749 162.226 22.6944 162.108 22.8306C161.95 23.0059 159.7 22.9864 152.714 22.7917C147.662 22.6359 143.518 22.5191 143.498 22.5191C143.498 22.4997 140.341 17.4765 136.512 11.3435C132.684 5.22999 129.487 0.128915 129.408 0.031566C129.309 -0.0657827 129.151 0.0704997 129.052 0.323606ZM134.835 14.9454C137.282 18.8588 139.295 22.1881 139.295 22.305C139.295 22.4802 138.959 22.5191 138.071 22.4218C137.381 22.3634 133.966 22.266 130.473 22.1881C126.132 22.1103 124.099 21.9934 124.099 21.8572C124.099 21.7403 125.283 18.6641 126.744 15.0038C128.204 11.363 129.506 8.13098 129.625 7.81947C129.802 7.33272 129.881 7.29378 130.098 7.52742C130.256 7.68318 132.388 11.0125 134.835 14.9454ZM83.7022 24.2325C102.983 24.7387 118.83 25.2254 118.889 25.2838C118.948 25.3422 117.764 28.4963 116.245 32.2735C113.896 38.1144 113.423 39.1463 113.127 39.0879C112.554 38.9905 45.4762 23.4731 45.2591 23.3953C44.8249 23.22 49.9954 23.3369 83.7022 24.2325ZM155.753 26.16L158.891 26.2963L155.102 30.3849C153.03 32.6239 151.274 34.493 151.175 34.532C151.017 34.5709 145.807 26.3547 145.807 26.0626C145.807 25.8874 149.754 25.9263 155.753 26.16ZM137.992 48.2387C150.149 51.0618 159.917 53.3982 159.74 53.4176C159.404 53.4955 112.002 52.2884 111.923 52.2105C111.785 52.0937 115.514 43.1376 115.692 43.1376C115.811 43.1376 125.855 45.435 137.992 48.2387Z" fill="#141414"/>
</svg>
