<?xml version="1.0"?><svg xmlns="http://www.w3.org/2000/svg" xmlns:svg="http://www.w3.org/2000/svg" version="1.1" viewBox="-2 -2 86 86"><g class="layer">
  <title>Layer 1</title><path d="M1 18a1,1 0 0,1 1,1a1,1 0 0,1 -1,1a1,1 0 0,1 -1,-1a1,1 0 0,1 1,-1M1 24a1,1 0 0,1 1,1a1,1 0 0,0 1,1a1,1 0 0,1 1,1a1,1 0 0,1 -1,1a1,1 0 0,0 -1,1a1,1 0 0,1 -1,1a1,1 0 0,1 -1,-1v-2v-2a1,1 0 0,1 1,-1M1 38a1,1 0 0,0 1,-1v-2a1,1 0 0,1 1,-1h2a1,1 0 0,1 1,1a1,1 0 0,1 -1,1a1,1 0 0,0 -1,1a1,1 0 0,0 1,1a1,1 0 0,0 1,-1a1,1 0 0,1 1,-1a1,1 0 0,0 1,-1a1,1 0 0,1 1,-1a1,1 0 0,1 1,1a1,1 0 0,0 1,1h2a1,1 0 0,1 1,1a1,1 0 0,1 -1,1a1,1 0 0,0 -1,1a1,1 0 0,1 -1,1a1,1 0 0,0 -1,1a1,1 0 0,1 -1,1a1,1 0 0,0 -1,1v2a1,1 0 0,0 1,1a1,1 0 0,0 1,-1v-2a1,1 0 0,1 1,-1a1,1 0 0,1 1,1a1,1 0 0,0 1,1h2a1,1 0 0,0 1,-1a1,1 0 0,1 1,-1a1,1 0 0,1 1,1v2a1,1 0 0,0 1,1h2a1,1 0 0,0 1,-1v-2a1,1 0 0,0 -1,-1a1,1 0 0,1 -1,-1v-2a1,1 0 0,1 1,-1h2a1,1 0 0,1 1,1a1,1 0 0,0 1,1a1,1 0 0,0 1,-1a1,1 0 0,1 1,-1a1,1 0 0,1 1,1v2a1,1 0 0,1 -1,1a1,1 0 0,0 -1,1a1,1 0 0,0 1,1a1,1 0 0,1 1,1v2v2v2a1,1 0 0,1 -1,1h-2h-2a1,1 0 0,1 -1,-1a1,1 0 0,1 1,-1h2a1,1 0 0,0 1,-1a1,1 0 0,0 -1,-1h-2a1,1 0 0,0 -1,1a1,1 0 0,1 -1,1a1,1 0 0,0 -1,1v2a1,1 0 0,1 -1,1a1,1 0 0,0 -1,1a1,1 0 0,1 -1,1a1,1 0 0,1 -1,-1a1,1 0 0,0 -1,-1h-2a1,1 0 0,0 -1,1a1,1 0 0,1 -1,1h-2a1,1 0 0,0 -1,1a1,1 0 0,0 1,1a1,1 0 0,1 1,1a1,1 0 0,1 -1,1a1,1 0 0,0 -1,1a1,1 0 0,0 1,1h2a1,1 0 0,1 1,1a1,1 0 0,0 1,1h2a1,1 0 0,0 1,-1a1,1 0 0,1 1,-1a1,1 0 0,1 1,1a1,1 0 0,0 1,1a1,1 0 0,1 1,1a1,1 0 0,1 -1,1a1,1 0 0,0 -1,1a1,1 0 0,1 -1,1a1,1 0 0,1 -1,-1a1,1 0 0,0 -1,-1h-2h-2a1,1 0 0,1 -1,-1a1,1 0 0,0 -1,-1a1,1 0 0,0 -1,1a1,1 0 0,1 -1,1a1,1 0 0,1 -1,-1a1,1 0 0,0 -1,-1a1,1 0 0,1 -1,-1v-2a1,1 0 0,0 -1,-1a1,1 0 0,1 -1,-1a1,1 0 0,0 -1,-1a1,1 0 0,1 -1,-1v-2v-2v-2a1,1 0 0,1 1,-1a1,1 0 0,1 1,1v2a1,1 0 0,0 1,1a1,1 0 0,0 1,-1a1,1 0 0,1 1,-1a1,1 0 0,0 1,-1a1,1 0 0,1 1,-1h2a1,1 0 0,1 1,1a1,1 0 0,1 -1,1a1,1 0 0,0 -1,1a1,1 0 0,0 1,1a1,1 0 0,0 1,-1a1,1 0 0,1 1,-1h2h2a1,1 0 0,0 1,-1v-2v-2a1,1 0 0,0 -1,-1h-2a1,1 0 0,0 -1,1a1,1 0 0,0 1,1a1,1 0 0,1 1,1a1,1 0 0,1 -1,1h-2a1,1 0 0,1 -1,-1a1,1 0 0,0 -1,-1h-2h-2h-2h-2a1,1 0 0,1 -1,-1a1,1 0 0,1 1,-1a1,1 0 0,0 1,-1a1,1 0 0,0 -1,-1a1,1 0 0,1 -1,-1a1,1 0 0,1 1,-1a1,1 0 0,0 1,-1a1,1 0 0,0 -1,-1a1,1 0 0,1 -1,-1a1,1 0 0,1 1,-1M1 60a1,1 0 0,1 1,1a1,1 0 0,1 -1,1a1,1 0 0,1 -1,-1a1,1 0 0,1 1,-1M1 64a1,1 0 0,1 1,1a1,1 0 0,1 -1,1a1,1 0 0,1 -1,-1a1,1 0 0,1 1,-1M3 20a1,1 0 0,1 1,1a1,1 0 0,0 1,1a1,1 0 0,1 1,1v2a1,1 0 0,1 -1,1a1,1 0 0,1 -1,-1a1,1 0 0,0 -1,-1a1,1 0 0,1 -1,-1v-2a1,1 0 0,1 1,-1M5 42a1,1 0 0,0 1,-1a1,1 0 0,0 -1,-1a1,1 0 0,0 -1,1a1,1 0 0,0 1,1M7 16a1,1 0 0,1 1,1v2a1,1 0 0,1 -1,1a1,1 0 0,1 -1,-1v-2a1,1 0 0,1 1,-1M7 26a1,1 0 0,1 1,1a1,1 0 0,0 1,1h2h2a1,1 0 0,1 1,1a1,1 0 0,1 -1,1h-2a1,1 0 0,0 -1,1a1,1 0 0,1 -1,1h-2a1,1 0 0,1 -1,-1v-2v-2a1,1 0 0,1 1,-1M9 20a1,1 0 0,0 1,-1a1,1 0 0,1 1,-1a1,1 0 0,1 1,1a1,1 0 0,0 1,1a1,1 0 0,0 1,-1a1,1 0 0,1 1,-1a1,1 0 0,1 1,1v2a1,1 0 0,1 -1,1h-2h-2a1,1 0 0,0 -1,1a1,1 0 0,1 -1,1a1,1 0 0,1 -1,-1v-2a1,1 0 0,1 1,-1M13 16a1,1 0 0,1 1,1a1,1 0 0,1 -1,1a1,1 0 0,1 -1,-1a1,1 0 0,1 1,-1M13 24h2a1,1 0 0,1 1,1v2a1,1 0 0,1 -1,1a1,1 0 0,1 -1,-1a1,1 0 0,0 -1,-1a1,1 0 0,1 -1,-1a1,1 0 0,1 1,-1M13 32a1,1 0 0,1 1,1a1,1 0 0,1 -1,1a1,1 0 0,1 -1,-1a1,1 0 0,1 1,-1M13 40a1,1 0 0,0 1,-1a1,1 0 0,1 1,-1h2a1,1 0 0,1 1,1a1,1 0 0,1 -1,1a1,1 0 0,0 -1,1a1,1 0 0,1 -1,1h-2a1,1 0 0,1 -1,-1a1,1 0 0,1 1,-1M13 56a1,1 0 0,1 1,1a1,1 0 0,1 -1,1a1,1 0 0,1 -1,-1a1,1 0 0,1 1,-1M13 60h2a1,1 0 0,1 1,1a1,1 0 0,1 -1,1h-2a1,1 0 0,1 -1,-1a1,1 0 0,1 1,-1M15 30a1,1 0 0,1 1,1a1,1 0 0,1 -1,1a1,1 0 0,1 -1,-1a1,1 0 0,1 1,-1M17 0h2h2h2a1,1 0 0,1 1,1a1,1 0 0,0 1,1a1,1 0 0,1 1,1a1,1 0 0,1 -1,1h-2a1,1 0 0,1 -1,-1a1,1 0 0,0 -1,-1a1,1 0 0,0 -1,1a1,1 0 0,1 -1,1h-2a1,1 0 0,1 -1,-1v-2a1,1 0 0,1 1,-1M17 6a1,1 0 0,1 1,1a1,1 0 0,0 1,1a1,1 0 0,1 1,1a1,1 0 0,0 1,1a1,1 0 0,1 1,1v2v2v2a1,1 0 0,1 -1,1a1,1 0 0,0 -1,1v2a1,1 0 0,1 -1,1a1,1 0 0,1 -1,-1v-2v-2a1,1 0 0,1 1,-1a1,1 0 0,0 1,-1v-2a1,1 0 0,0 -1,-1a1,1 0 0,0 -1,1a1,1 0 0,1 -1,1a1,1 0 0,1 -1,-1v-2v-2v-2a1,1 0 0,1 1,-1M17 22a1,1 0 0,1 1,1a1,1 0 0,1 -1,1a1,1 0 0,1 -1,-1a1,1 0 0,1 1,-1M17 34h2a1,1 0 0,1 1,1a1,1 0 0,1 -1,1h-2a1,1 0 0,1 -1,-1a1,1 0 0,1 1,-1M17 74a1,1 0 0,0 1,-1v-2a1,1 0 0,1 1,-1a1,1 0 0,0 1,-1v-2a1,1 0 0,1 1,-1h2a1,1 0 0,1 1,1v2a1,1 0 0,0 1,1a1,1 0 0,1 1,1a1,1 0 0,1 -1,1h-2a1,1 0 0,0 -1,1a1,1 0 0,0 1,1h2h2h2h2h2h2a1,1 0 0,0 1,-1a1,1 0 0,1 1,-1h2a1,1 0 0,0 1,-1a1,1 0 0,0 -1,-1h-2h-2a1,1 0 0,0 -1,1a1,1 0 0,1 -1,1h-2a1,1 0 0,1 -1,-1a1,1 0 0,0 -1,-1a1,1 0 0,1 -1,-1v-2a1,1 0 0,0 -1,-1a1,1 0 0,1 -1,-1v-2a1,1 0 0,1 1,-1a1,1 0 0,1 1,1a1,1 0 0,0 1,1a1,1 0 0,0 1,-1a1,1 0 0,0 -1,-1a1,1 0 0,1 -1,-1v-2v-2a1,1 0 0,0 -1,-1a1,1 0 0,1 -1,-1a1,1 0 0,1 1,-1h2a1,1 0 0,1 1,1a1,1 0 0,0 1,1h2h2h2h2h2a1,1 0 0,0 1,-1a1,1 0 0,1 1,-1h2h2h2h2a1,1 0 0,1 1,1a1,1 0 0,1 -1,1a1,1 0 0,0 -1,1a1,1 0 0,1 -1,1a1,1 0 0,0 -1,1v2a1,1 0 0,1 -1,1a1,1 0 0,1 -1,-1v-2a1,1 0 0,0 -1,-1a1,1 0 0,0 -1,1v2a1,1 0 0,0 1,1a1,1 0 0,1 1,1a1,1 0 0,1 -1,1h-2a1,1 0 0,0 -1,1a1,1 0 0,0 1,1h2a1,1 0 0,1 1,1v2v2a1,1 0 0,0 1,1a1,1 0 0,1 1,1a1,1 0 0,0 1,1h2a1,1 0 0,1 1,1a1,1 0 0,0 1,1a1,1 0 0,1 1,1a1,1 0 0,1 -1,1a1,1 0 0,0 -1,1v2a1,1 0 0,1 -1,1a1,1 0 0,1 -1,-1v-2a1,1 0 0,0 -1,-1a1,1 0 0,0 -1,1v2a1,1 0 0,1 -1,1h-2h-2a1,1 0 0,1 -1,-1a1,1 0 0,0 -1,-1a1,1 0 0,0 -1,1a1,1 0 0,1 -1,1a1,1 0 0,1 -1,-1v-2a1,1 0 0,0 -1,-1a1,1 0 0,1 -1,-1a1,1 0 0,0 -1,-1h-2a1,1 0 0,0 -1,1a1,1 0 0,1 -1,1h-2a1,1 0 0,1 -1,-1a1,1 0 0,0 -1,-1a1,1 0 0,0 -1,1a1,1 0 0,0 1,1a1,1 0 0,1 1,1v2a1,1 0 0,1 -1,1a1,1 0 0,1 -1,-1a1,1 0 0,0 -1,-1a1,1 0 0,0 -1,1a1,1 0 0,1 -1,1h-2a1,1 0 0,1 -1,-1v-2a1,1 0 0,1 1,-1h2a1,1 0 0,0 1,-1a1,1 0 0,0 -1,-1h-2a1,1 0 0,0 -1,1a1,1 0 0,1 -1,1a1,1 0 0,1 -1,-1a1,1 0 0,0 -1,-1a1,1 0 0,1 -1,-1a1,1 0 0,1 1,-1M19 26a1,1 0 0,1 1,1a1,1 0 0,1 -1,1a1,1 0 0,1 -1,-1a1,1 0 0,1 1,-1M19 30a1,1 0 0,0 1,-1a1,1 0 0,1 1,-1a1,1 0 0,0 1,-1a1,1 0 0,1 1,-1a1,1 0 0,1 1,1v2a1,1 0 0,1 -1,1a1,1 0 0,0 -1,1a1,1 0 0,1 -1,1h-2a1,1 0 0,1 -1,-1a1,1 0 0,1 1,-1M19 58h2a1,1 0 0,0 1,-1v-2a1,1 0 0,1 1,-1a1,1 0 0,1 1,1v2a1,1 0 0,0 1,1a1,1 0 0,1 1,1a1,1 0 0,1 -1,1a1,1 0 0,0 -1,1a1,1 0 0,1 -1,1a1,1 0 0,0 -1,1a1,1 0 0,1 -1,1a1,1 0 0,1 -1,-1a1,1 0 0,0 -1,-1a1,1 0 0,1 -1,-1v-2a1,1 0 0,1 1,-1M23 6a1,1 0 0,1 1,1a1,1 0 0,1 -1,1a1,1 0 0,1 -1,-1a1,1 0 0,1 1,-1M23 18a1,1 0 0,1 1,1v2a1,1 0 0,1 -1,1a1,1 0 0,1 -1,-1v-2a1,1 0 0,1 1,-1M23 32a1,1 0 0,0 1,-1a1,1 0 0,1 1,-1a1,1 0 0,1 1,1v2a1,1 0 0,1 -1,1a1,1 0 0,0 -1,1a1,1 0 0,1 -1,1a1,1 0 0,1 -1,-1v-2a1,1 0 0,1 1,-1M25 12a1,1 0 0,1 1,1a1,1 0 0,1 -1,1a1,1 0 0,1 -1,-1a1,1 0 0,1 1,-1M25 22a1,1 0 0,1 1,1a1,1 0 0,0 1,1h2h2h2a1,1 0 0,1 1,1a1,1 0 0,1 -1,1h-2a1,1 0 0,0 -1,1a1,1 0 0,1 -1,1a1,1 0 0,0 -1,1a1,1 0 0,1 -1,1a1,1 0 0,1 -1,-1v-2a1,1 0 0,0 -1,-1a1,1 0 0,1 -1,-1v-2a1,1 0 0,1 1,-1M25 36a1,1 0 0,1 1,1a1,1 0 0,1 -1,1a1,1 0 0,1 -1,-1a1,1 0 0,1 1,-1M27 0h2h2a1,1 0 0,1 1,1a1,1 0 0,1 -1,1a1,1 0 0,0 -1,1a1,1 0 0,1 -1,1a1,1 0 0,1 -1,-1a1,1 0 0,0 -1,-1a1,1 0 0,1 -1,-1a1,1 0 0,1 1,-1M27 8a1,1 0 0,1 1,1a1,1 0 0,0 1,1a1,1 0 0,1 1,1v2a1,1 0 0,1 -1,1a1,1 0 0,1 -1,-1a1,1 0 0,0 -1,-1a1,1 0 0,1 -1,-1v-2a1,1 0 0,1 1,-1M27 16a1,1 0 0,1 1,1a1,1 0 0,1 -1,1a1,1 0 0,1 -1,-1a1,1 0 0,1 1,-1M27 34a1,1 0 0,1 1,1a1,1 0 0,1 -1,1a1,1 0 0,1 -1,-1a1,1 0 0,1 1,-1M29 18h2h2h2a1,1 0 0,1 1,1a1,1 0 0,1 -1,1a1,1 0 0,0 -1,1a1,1 0 0,1 -1,1h-2a1,1 0 0,1 -1,-1a1,1 0 0,0 -1,-1a1,1 0 0,1 -1,-1a1,1 0 0,1 1,-1M31 4a1,1 0 0,1 1,1a1,1 0 0,0 1,1h2a1,1 0 0,1 1,1a1,1 0 0,0 1,1a1,1 0 0,1 1,1a1,1 0 0,1 -1,1a1,1 0 0,0 -1,1a1,1 0 0,1 -1,1a1,1 0 0,1 -1,-1a1,1 0 0,0 -1,-1a1,1 0 0,1 -1,-1a1,1 0 0,0 -1,-1a1,1 0 0,1 -1,-1v-2a1,1 0 0,1 1,-1M31 60a1,1 0 0,1 1,1v2a1,1 0 0,0 1,1a1,1 0 0,1 1,1a1,1 0 0,1 -1,1h-2a1,1 0 0,0 -1,1a1,1 0 0,0 1,1h2a1,1 0 0,0 1,-1a1,1 0 0,1 1,-1a1,1 0 0,1 1,1a1,1 0 0,0 1,1h2a1,1 0 0,0 1,-1a1,1 0 0,0 -1,-1h-2a1,1 0 0,1 -1,-1a1,1 0 0,1 1,-1h2a1,1 0 0,0 1,-1a1,1 0 0,1 1,-1a1,1 0 0,0 1,-1a1,1 0 0,0 -1,-1a1,1 0 0,1 -1,-1a1,1 0 0,0 -1,-1a1,1 0 0,0 -1,1v2a1,1 0 0,1 -1,1a1,1 0 0,1 -1,-1v-2a1,1 0 0,0 -1,-1a1,1 0 0,0 -1,1a1,1 0 0,1 -1,1a1,1 0 0,1 -1,-1a1,1 0 0,0 -1,-1a1,1 0 0,0 -1,1a1,1 0 0,0 1,1M33 12a1,1 0 0,1 1,1a1,1 0 0,0 1,1a1,1 0 0,0 1,-1a1,1 0 0,1 1,-1a1,1 0 0,1 1,1a1,1 0 0,0 1,1a1,1 0 0,0 1,-1a1,1 0 0,0 -1,-1a1,1 0 0,1 -1,-1a1,1 0 0,1 1,-1a1,1 0 0,0 1,-1a1,1 0 0,0 -1,-1a1,1 0 0,1 -1,-1v-2a1,1 0 0,1 1,-1a1,1 0 0,1 1,1a1,1 0 0,0 1,1a1,1 0 0,0 1,-1a1,1 0 0,1 1,-1h2a1,1 0 0,1 1,1a1,1 0 0,0 1,1a1,1 0 0,1 1,1a1,1 0 0,1 -1,1h-2a1,1 0 0,0 -1,1a1,1 0 0,1 -1,1a1,1 0 0,0 -1,1v2a1,1 0 0,0 1,1a1,1 0 0,0 1,-1v-2a1,1 0 0,1 1,-1a1,1 0 0,1 1,1v2v2v2v2a1,1 0 0,0 1,1a1,1 0 0,0 1,-1a1,1 0 0,1 1,-1a1,1 0 0,1 1,1v2v2v2a1,1 0 0,1 -1,1a1,1 0 0,1 -1,-1a1,1 0 0,0 -1,-1a1,1 0 0,0 -1,1a1,1 0 0,1 -1,1h-2a1,1 0 0,1 -1,-1a1,1 0 0,1 1,-1a1,1 0 0,0 1,-1a1,1 0 0,0 -1,-1a1,1 0 0,1 -1,-1a1,1 0 0,1 1,-1a1,1 0 0,0 1,-1a1,1 0 0,0 -1,-1a1,1 0 0,1 -1,-1a1,1 0 0,0 -1,-1h-2a1,1 0 0,0 -1,1a1,1 0 0,1 -1,1a1,1 0 0,1 -1,-1a1,1 0 0,0 -1,-1h-2a1,1 0 0,1 -1,-1v-2a1,1 0 0,1 1,-1M33 78a1,1 0 0,1 1,1a1,1 0 0,1 -1,1a1,1 0 0,1 -1,-1a1,1 0 0,1 1,-1M35 0a1,1 0 0,1 1,1a1,1 0 0,1 -1,1a1,1 0 0,1 -1,-1a1,1 0 0,1 1,-1M37 2a1,1 0 0,1 1,1a1,1 0 0,1 -1,1a1,1 0 0,1 -1,-1a1,1 0 0,1 1,-1M37 22a1,1 0 0,1 1,1v2v2a1,1 0 0,1 -1,1a1,1 0 0,1 -1,-1v-2v-2a1,1 0 0,1 1,-1M39 20a1,1 0 0,1 1,1a1,1 0 0,1 -1,1a1,1 0 0,1 -1,-1a1,1 0 0,1 1,-1M39 76a1,1 0 0,1 1,1a1,1 0 0,0 1,1h2a1,1 0 0,0 1,-1a1,1 0 0,0 -1,-1h-2a1,1 0 0,1 -1,-1a1,1 0 0,0 -1,-1a1,1 0 0,0 -1,1a1,1 0 0,0 1,1M41 2a1,1 0 0,1 1,1a1,1 0 0,1 -1,1a1,1 0 0,1 -1,-1a1,1 0 0,1 1,-1M41 18a1,1 0 0,1 1,1a1,1 0 0,1 -1,1a1,1 0 0,1 -1,-1a1,1 0 0,1 1,-1M41 22a1,1 0 0,1 1,1a1,1 0 0,1 -1,1a1,1 0 0,1 -1,-1a1,1 0 0,1 1,-1M41 26a1,1 0 0,1 1,1a1,1 0 0,1 -1,1a1,1 0 0,1 -1,-1a1,1 0 0,1 1,-1M43 0h2a1,1 0 0,1 1,1a1,1 0 0,1 -1,1h-2a1,1 0 0,1 -1,-1a1,1 0 0,1 1,-1M47 2a1,1 0 0,0 1,-1a1,1 0 0,1 1,-1h2a1,1 0 0,1 1,1a1,1 0 0,0 1,1a1,1 0 0,0 1,-1a1,1 0 0,1 1,-1h2h2a1,1 0 0,1 1,1v2v2a1,1 0 0,1 -1,1a1,1 0 0,0 -1,1a1,1 0 0,1 -1,1a1,1 0 0,0 -1,1v2a1,1 0 0,1 -1,1a1,1 0 0,1 -1,-1a1,1 0 0,0 -1,-1a1,1 0 0,1 -1,-1a1,1 0 0,0 -1,-1a1,1 0 0,1 -1,-1a1,1 0 0,0 -1,-1a1,1 0 0,1 -1,-1a1,1 0 0,0 -1,-1a1,1 0 0,1 -1,-1a1,1 0 0,1 1,-1M47 64a1,1 0 0,1 1,1a1,1 0 0,1 -1,1a1,1 0 0,1 -1,-1a1,1 0 0,1 1,-1M49 8a1,1 0 0,1 1,1a1,1 0 0,1 -1,1a1,1 0 0,1 -1,-1a1,1 0 0,1 1,-1M49 12a1,1 0 0,1 1,1v2a1,1 0 0,1 -1,1a1,1 0 0,1 -1,-1v-2a1,1 0 0,1 1,-1M49 66a1,1 0 0,1 1,1v2v2a1,1 0 0,1 -1,1a1,1 0 0,1 -1,-1v-2v-2a1,1 0 0,1 1,-1M51 16a1,1 0 0,0 1,-1v-2a1,1 0 0,1 1,-1a1,1 0 0,1 1,1a1,1 0 0,0 1,1a1,1 0 0,1 1,1a1,1 0 0,1 -1,1a1,1 0 0,0 -1,1v2v2a1,1 0 0,1 -1,1a1,1 0 0,1 -1,-1v-2a1,1 0 0,0 -1,-1a1,1 0 0,1 -1,-1a1,1 0 0,1 1,-1M51 64a1,1 0 0,0 1,-1v-2a1,1 0 0,1 1,-1a1,1 0 0,1 1,1v2v2v2v2a1,1 0 0,0 1,1a1,1 0 0,1 1,1a1,1 0 0,1 -1,1h-2a1,1 0 0,1 -1,-1v-2v-2a1,1 0 0,0 -1,-1a1,1 0 0,1 -1,-1a1,1 0 0,1 1,-1M53 6a1,1 0 0,0 1,-1a1,1 0 0,0 -1,-1a1,1 0 0,0 -1,1a1,1 0 0,0 1,1M53 24a1,1 0 0,1 1,1a1,1 0 0,0 1,1a1,1 0 0,0 1,-1a1,1 0 0,0 -1,-1a1,1 0 0,1 -1,-1a1,1 0 0,1 1,-1h2a1,1 0 0,1 1,1a1,1 0 0,0 1,1h2h2a1,1 0 0,1 1,1v2a1,1 0 0,1 -1,1a1,1 0 0,0 -1,1a1,1 0 0,1 -1,1a1,1 0 0,1 -1,-1a1,1 0 0,0 -1,-1a1,1 0 0,0 -1,1a1,1 0 0,1 -1,1a1,1 0 0,1 -1,-1a1,1 0 0,0 -1,-1h-2a1,1 0 0,1 -1,-1v-2a1,1 0 0,1 1,-1M55 30a1,1 0 0,1 1,1a1,1 0 0,0 1,1a1,1 0 0,0 1,-1a1,1 0 0,1 1,-1a1,1 0 0,1 1,1a1,1 0 0,0 1,1a1,1 0 0,0 1,-1a1,1 0 0,1 1,-1a1,1 0 0,1 1,1a1,1 0 0,0 1,1a1,1 0 0,1 1,1a1,1 0 0,1 -1,1h-2h-2h-2h-2h-2a1,1 0 0,1 -1,-1v-2a1,1 0 0,1 1,-1M55 56h2a1,1 0 0,0 1,-1v-2a1,1 0 0,1 1,-1h2a1,1 0 0,1 1,1a1,1 0 0,1 -1,1a1,1 0 0,0 -1,1a1,1 0 0,0 1,1a1,1 0 0,1 1,1v2a1,1 0 0,1 -1,1h-2a1,1 0 0,1 -1,-1a1,1 0 0,0 -1,-1h-2a1,1 0 0,1 -1,-1a1,1 0 0,1 1,-1M57 12a1,1 0 0,1 1,1a1,1 0 0,1 -1,1a1,1 0 0,1 -1,-1a1,1 0 0,1 1,-1M57 18h2a1,1 0 0,1 1,1v2a1,1 0 0,1 -1,1a1,1 0 0,1 -1,-1a1,1 0 0,0 -1,-1a1,1 0 0,1 -1,-1a1,1 0 0,1 1,-1M57 36a1,1 0 0,1 1,1a1,1 0 0,1 -1,1a1,1 0 0,1 -1,-1a1,1 0 0,1 1,-1M57 40a1,1 0 0,1 1,1v2a1,1 0 0,1 -1,1a1,1 0 0,1 -1,-1v-2a1,1 0 0,1 1,-1M57 46a1,1 0 0,1 1,1a1,1 0 0,1 -1,1a1,1 0 0,1 -1,-1a1,1 0 0,1 1,-1M57 68a1,1 0 0,1 1,1a1,1 0 0,1 -1,1a1,1 0 0,1 -1,-1a1,1 0 0,1 1,-1M57 74a1,1 0 0,1 1,1v2a1,1 0 0,0 1,1a1,1 0 0,1 1,1v2a1,1 0 0,1 -1,1a1,1 0 0,1 -1,-1a1,1 0 0,0 -1,-1a1,1 0 0,1 -1,-1v-2v-2a1,1 0 0,1 1,-1M59 8a1,1 0 0,1 1,1a1,1 0 0,1 -1,1a1,1 0 0,1 -1,-1a1,1 0 0,1 1,-1M59 14a1,1 0 0,1 1,1a1,1 0 0,1 -1,1a1,1 0 0,1 -1,-1a1,1 0 0,1 1,-1M59 38a1,1 0 0,0 1,-1a1,1 0 0,1 1,-1a1,1 0 0,1 1,1a1,1 0 0,0 1,1h2h2a1,1 0 0,1 1,1a1,1 0 0,1 -1,1h-2h-2a1,1 0 0,0 -1,1v2a1,1 0 0,0 1,1a1,1 0 0,1 1,1a1,1 0 0,1 -1,1a1,1 0 0,0 -1,1a1,1 0 0,1 -1,1a1,1 0 0,1 -1,-1v-2v-2v-2a1,1 0 0,0 -1,-1a1,1 0 0,1 -1,-1a1,1 0 0,1 1,-1M59 48a1,1 0 0,1 1,1a1,1 0 0,1 -1,1a1,1 0 0,1 -1,-1a1,1 0 0,1 1,-1M59 62h2a1,1 0 0,1 1,1a1,1 0 0,1 -1,1h-2a1,1 0 0,1 -1,-1a1,1 0 0,1 1,-1M59 66a1,1 0 0,1 1,1a1,1 0 0,1 -1,1a1,1 0 0,1 -1,-1a1,1 0 0,1 1,-1M59 72a1,1 0 0,0 1,-1v-2a1,1 0 0,1 1,-1a1,1 0 0,1 1,1a1,1 0 0,0 1,1a1,1 0 0,0 1,-1v-2v-2v-2a1,1 0 0,1 1,-1h2a1,1 0 0,1 1,1a1,1 0 0,0 1,1h2a1,1 0 0,0 1,-1a1,1 0 0,1 1,-1a1,1 0 0,1 1,1v2v2a1,1 0 0,0 1,1a1,1 0 0,1 1,1a1,1 0 0,1 -1,1a1,1 0 0,0 -1,1v2v2v2a1,1 0 0,1 -1,1a1,1 0 0,1 -1,-1v-2a1,1 0 0,0 -1,-1a1,1 0 0,0 -1,1a1,1 0 0,1 -1,1h-2a1,1 0 0,1 -1,-1a1,1 0 0,0 -1,-1a1,1 0 0,1 -1,-1a1,1 0 0,0 -1,-1a1,1 0 0,0 -1,1v2a1,1 0 0,1 -1,1a1,1 0 0,1 -1,-1a1,1 0 0,0 -1,-1a1,1 0 0,1 -1,-1a1,1 0 0,1 1,-1M61 10h2a1,1 0 0,0 1,-1a1,1 0 0,0 -1,-1a1,1 0 0,1 -1,-1v-2a1,1 0 0,1 1,-1a1,1 0 0,1 1,1a1,1 0 0,0 1,1a1,1 0 0,1 1,1v2v2v2a1,1 0 0,1 -1,1a1,1 0 0,1 -1,-1a1,1 0 0,0 -1,-1a1,1 0 0,0 -1,1a1,1 0 0,1 -1,1a1,1 0 0,1 -1,-1v-2a1,1 0 0,1 1,-1M63 0h2a1,1 0 0,1 1,1v2a1,1 0 0,1 -1,1a1,1 0 0,1 -1,-1a1,1 0 0,0 -1,-1a1,1 0 0,1 -1,-1a1,1 0 0,1 1,-1M63 14a1,1 0 0,1 1,1a1,1 0 0,1 -1,1a1,1 0 0,1 -1,-1a1,1 0 0,1 1,-1M63 20a1,1 0 0,1 1,1a1,1 0 0,1 -1,1a1,1 0 0,1 -1,-1a1,1 0 0,1 1,-1M63 50a1,1 0 0,1 1,1a1,1 0 0,1 -1,1a1,1 0 0,1 -1,-1a1,1 0 0,1 1,-1M63 76a1,1 0 0,1 1,1a1,1 0 0,1 -1,1a1,1 0 0,1 -1,-1a1,1 0 0,1 1,-1M63 80a1,1 0 0,0 1,-1a1,1 0 0,1 1,-1a1,1 0 0,1 1,1a1,1 0 0,0 1,1a1,1 0 0,0 1,-1a1,1 0 0,1 1,-1h2a1,1 0 0,1 1,1a1,1 0 0,0 1,1a1,1 0 0,1 1,1a1,1 0 0,1 -1,1h-2h-2h-2h-2h-2a1,1 0 0,1 -1,-1a1,1 0 0,1 1,-1M65 18h2h2a1,1 0 0,0 1,-1a1,1 0 0,1 1,-1h2h2a1,1 0 0,1 1,1a1,1 0 0,0 1,1a1,1 0 0,1 1,1v2v2a1,1 0 0,1 -1,1a1,1 0 0,1 -1,-1a1,1 0 0,0 -1,-1h-2a1,1 0 0,1 -1,-1a1,1 0 0,1 1,-1a1,1 0 0,0 1,-1a1,1 0 0,0 -1,-1a1,1 0 0,0 -1,1a1,1 0 0,1 -1,1a1,1 0 0,0 -1,1a1,1 0 0,1 -1,1a1,1 0 0,1 -1,-1a1,1 0 0,0 -1,-1h-2a1,1 0 0,1 -1,-1a1,1 0 0,1 1,-1M65 28a1,1 0 0,1 1,1a1,1 0 0,1 -1,1a1,1 0 0,1 -1,-1a1,1 0 0,1 1,-1M65 42h2a1,1 0 0,0 1,-1a1,1 0 0,1 1,-1a1,1 0 0,1 1,1a1,1 0 0,0 1,1a1,1 0 0,1 1,1a1,1 0 0,1 -1,1a1,1 0 0,0 -1,1a1,1 0 0,1 -1,1h-2a1,1 0 0,1 -1,-1a1,1 0 0,0 -1,-1a1,1 0 0,1 -1,-1a1,1 0 0,1 1,-1M65 48a1,1 0 0,1 1,1a1,1 0 0,1 -1,1a1,1 0 0,1 -1,-1a1,1 0 0,1 1,-1M65 52a1,1 0 0,1 1,1a1,1 0 0,0 1,1a1,1 0 0,0 1,-1a1,1 0 0,1 1,-1a1,1 0 0,0 1,-1a1,1 0 0,0 -1,-1a1,1 0 0,1 -1,-1a1,1 0 0,1 1,-1h2a1,1 0 0,1 1,1v2a1,1 0 0,0 1,1a1,1 0 0,1 1,1a1,1 0 0,1 -1,1h-2a1,1 0 0,0 -1,1a1,1 0 0,1 -1,1a1,1 0 0,0 -1,1a1,1 0 0,0 1,1a1,1 0 0,0 1,-1a1,1 0 0,1 1,-1a1,1 0 0,1 1,1v2v2a1,1 0 0,1 -1,1a1,1 0 0,1 -1,-1a1,1 0 0,0 -1,-1h-2h-2a1,1 0 0,1 -1,-1a1,1 0 0,1 1,-1a1,1 0 0,0 1,-1a1,1 0 0,0 -1,-1a1,1 0 0,1 -1,-1v-2a1,1 0 0,1 1,-1M67 72h2h2a1,1 0 0,0 1,-1v-2v-2a1,1 0 0,0 -1,-1h-2h-2a1,1 0 0,0 -1,1v2v2a1,1 0 0,0 1,1M69 24a1,1 0 0,0 1,-1a1,1 0 0,1 1,-1a1,1 0 0,1 1,1v2a1,1 0 0,1 -1,1h-2a1,1 0 0,1 -1,-1a1,1 0 0,1 1,-1M69 28a1,1 0 0,1 1,1a1,1 0 0,0 1,1a1,1 0 0,1 1,1v2v2a1,1 0 0,1 -1,1a1,1 0 0,0 -1,1a1,1 0 0,1 -1,1a1,1 0 0,1 -1,-1v-2a1,1 0 0,1 1,-1a1,1 0 0,0 1,-1a1,1 0 0,0 -1,-1a1,1 0 0,1 -1,-1v-2a1,1 0 0,1 1,-1M69 68a1,1 0 0,1 1,1a1,1 0 0,1 -1,1a1,1 0 0,1 -1,-1a1,1 0 0,1 1,-1M71 38a1,1 0 0,1 1,1a1,1 0 0,1 -1,1a1,1 0 0,1 -1,-1a1,1 0 0,1 1,-1M73 28a1,1 0 0,0 1,-1v-2a1,1 0 0,1 1,-1a1,1 0 0,1 1,1v2v2a1,1 0 0,1 -1,1h-2a1,1 0 0,1 -1,-1a1,1 0 0,1 1,-1M73 36a1,1 0 0,1 1,1a1,1 0 0,1 -1,1a1,1 0 0,1 -1,-1a1,1 0 0,1 1,-1M73 44a1,1 0 0,1 1,1a1,1 0 0,0 1,1a1,1 0 0,0 1,-1a1,1 0 0,1 1,-1a1,1 0 0,0 1,-1a1,1 0 0,0 -1,-1a1,1 0 0,0 -1,1a1,1 0 0,1 -1,1a1,1 0 0,1 -1,-1v-2a1,1 0 0,1 1,-1h2a1,1 0 0,0 1,-1v-2a1,1 0 0,0 -1,-1h-2a1,1 0 0,1 -1,-1v-2a1,1 0 0,1 1,-1a1,1 0 0,1 1,1a1,1 0 0,0 1,1a1,1 0 0,0 1,-1a1,1 0 0,1 1,-1h2a1,1 0 0,1 1,1v2v2a1,1 0 0,1 -1,1a1,1 0 0,0 -1,1v2a1,1 0 0,0 1,1a1,1 0 0,1 1,1a1,1 0 0,1 -1,1a1,1 0 0,0 -1,1a1,1 0 0,1 -1,1a1,1 0 0,0 -1,1a1,1 0 0,1 -1,1a1,1 0 0,0 -1,1v2a1,1 0 0,1 -1,1a1,1 0 0,1 -1,-1v-2a1,1 0 0,0 -1,-1a1,1 0 0,1 -1,-1v-2a1,1 0 0,1 1,-1M75 60a1,1 0 0,0 1,-1a1,1 0 0,1 1,-1h2h2a1,1 0 0,1 1,1v2a1,1 0 0,1 -1,1a1,1 0 0,1 -1,-1a1,1 0 0,0 -1,-1a1,1 0 0,0 -1,1a1,1 0 0,1 -1,1h-2a1,1 0 0,1 -1,-1a1,1 0 0,1 1,-1M75 78a1,1 0 0,1 1,1a1,1 0 0,1 -1,1a1,1 0 0,1 -1,-1a1,1 0 0,1 1,-1M77 64a1,1 0 0,1 1,1a1,1 0 0,1 -1,1a1,1 0 0,1 -1,-1a1,1 0 0,1 1,-1M77 70h2h2a1,1 0 0,1 1,1v2a1,1 0 0,1 -1,1a1,1 0 0,1 -1,-1a1,1 0 0,0 -1,-1h-2a1,1 0 0,1 -1,-1a1,1 0 0,1 1,-1M77 76a1,1 0 0,1 1,1a1,1 0 0,1 -1,1a1,1 0 0,1 -1,-1a1,1 0 0,1 1,-1M79 16h2a1,1 0 0,1 1,1v2a1,1 0 0,1 -1,1a1,1 0 0,1 -1,-1a1,1 0 0,0 -1,-1a1,1 0 0,1 -1,-1a1,1 0 0,1 1,-1M79 24a1,1 0 0,1 1,1v2a1,1 0 0,0 1,1a1,1 0 0,1 1,1a1,1 0 0,1 -1,1h-2a1,1 0 0,1 -1,-1v-2v-2a1,1 0 0,1 1,-1M79 50a1,1 0 0,1 1,1a1,1 0 0,1 -1,1a1,1 0 0,1 -1,-1a1,1 0 0,1 1,-1M79 66a1,1 0 0,0 1,-1a1,1 0 0,1 1,-1a1,1 0 0,1 1,1v2a1,1 0 0,1 -1,1h-2a1,1 0 0,1 -1,-1a1,1 0 0,1 1,-1M79 78a1,1 0 0,1 1,1v2a1,1 0 0,1 -1,1a1,1 0 0,1 -1,-1v-2a1,1 0 0,1 1,-1M81 52a1,1 0 0,1 1,1a1,1 0 0,1 -1,1a1,1 0 0,1 -1,-1a1,1 0 0,1 1,-1M81 76a1,1 0 0,1 1,1a1,1 0 0,1 -1,1a1,1 0 0,1 -1,-1a1,1 0 0,1 1,-1" fill-rule="evenodd" fill="#1A1A1A" id="svg_1" /></g><path d="M3,0h8a3,3 0 0,1 3,3v8a3,3 0 0,1 -3,3h-8a3,3 0 0,1 -3,-3v-8a3,3 0 0,1 3,-3zM4.1,2a2.0999999999999996,2.0999999999999996 0 0,0 -2.0999999999999996,2.0999999999999996v5.800000000000001a2.0999999999999996,2.0999999999999996 0 0,0 2.0999999999999996,2.0999999999999996h5.800000000000001a2.0999999999999996,2.0999999999999996 0 0,0 2.0999999999999996,-2.0999999999999996v-5.800000000000001a2.0999999999999996,2.0999999999999996 0 0,0 -2.0999999999999996,-2.0999999999999996h-5.800000000000001zM5.5,4h3a1.5,1.5 0 0,1 1.5,1.5v3a1.5,1.5 0 0,1 -1.5,1.5h-3a1.5,1.5 0 0,1 -1.5,-1.5v-3a1.5,1.5 0 0,1 1.5,-1.5z" fill="#1A1A1A" fill-rule="evenodd"/>
<path d="M71,0h8a3,3 0 0,1 3,3v8a3,3 0 0,1 -3,3h-8a3,3 0 0,1 -3,-3v-8a3,3 0 0,1 3,-3zM72.1,2a2.0999999999999996,2.0999999999999996 0 0,0 -2.0999999999999996,2.0999999999999996v5.800000000000001a2.0999999999999996,2.0999999999999996 0 0,0 2.0999999999999996,2.0999999999999996h5.800000000000001a2.0999999999999996,2.0999999999999996 0 0,0 2.0999999999999996,-2.0999999999999996v-5.800000000000001a2.0999999999999996,2.0999999999999996 0 0,0 -2.0999999999999996,-2.0999999999999996h-5.800000000000001zM73.5,4h3a1.5,1.5 0 0,1 1.5,1.5v3a1.5,1.5 0 0,1 -1.5,1.5h-3a1.5,1.5 0 0,1 -1.5,-1.5v-3a1.5,1.5 0 0,1 1.5,-1.5z" fill="#1A1A1A" fill-rule="evenodd"/>
<path d="M3,68h8a3,3 0 0,1 3,3v8a3,3 0 0,1 -3,3h-8a3,3 0 0,1 -3,-3v-8a3,3 0 0,1 3,-3zM4.1,70a2.0999999999999996,2.0999999999999996 0 0,0 -2.0999999999999996,2.0999999999999996v5.800000000000001a2.0999999999999996,2.0999999999999996 0 0,0 2.0999999999999996,2.0999999999999996h5.800000000000001a2.0999999999999996,2.0999999999999996 0 0,0 2.0999999999999996,-2.0999999999999996v-5.800000000000001a2.0999999999999996,2.0999999999999996 0 0,0 -2.0999999999999996,-2.0999999999999996h-5.800000000000001zM5.5,72h3a1.5,1.5 0 0,1 1.5,1.5v3a1.5,1.5 0 0,1 -1.5,1.5h-3a1.5,1.5 0 0,1 -1.5,-1.5v-3a1.5,1.5 0 0,1 1.5,-1.5z" fill="#1A1A1A" fill-rule="evenodd"/><svg width="20.50" height="20.50" x="30.75" y="30.75" fill="none" viewBox="0 0 1000 1000">
      <path fill="#1A1A1A" d="M438.215 281.252L295.715 134.768L212.991 219.484L362.464 361.984H152.22V479.577H363.46L212.991 625.741L295.715 708.786L499.982 503.523L704.249 708.786L786.973 626.062L636.504 479.898H847.78V361.984H637.536L787.009 219.484L704.285 134.768L561.785 281.252V73H438.215V281.252ZM561.785 647.979H438.215V927H561.785V647.979Z" />
    </svg></svg>