<svg width="520" height="520" viewBox="0 0 520 520" fill="none" xmlns="http://www.w3.org/2000/svg">
<g filter="url(#filter0_d_1_797)">
<path d="M384 4C456.902 4 516 63.0984 516 136V384C516 456.902 456.902 516 384 516H136C63.0984 516 4 456.902 4 384V136C4 63.0984 63.0984 4 136 4H384ZM425.938 148.808C416.274 148.808 408.439 156.643 408.438 166.308V374C408.438 397.472 389.411 416.5 365.938 416.5H154C130.528 416.5 111.5 397.472 111.5 374V313.538C111.5 303.873 103.665 296.038 94 296.038C84.3351 296.038 76.5002 303.873 76.5 313.538V374C76.5001 416.802 111.198 451.5 154 451.5H365.938C408.741 451.5 443.438 416.802 443.438 374V166.308C443.438 156.643 435.603 148.808 425.938 148.808ZM178 347C164.193 347 153 358.193 153 372C153 385.807 164.193 397 178 397C191.807 397 203 385.807 203 372C203 358.193 191.807 347 178 347ZM243 354.5C233.335 354.5 225.5 362.335 225.5 372C225.5 381.665 233.335 389.5 243 389.5H349C358.665 389.5 366.5 381.665 366.5 372C366.5 362.335 358.665 354.5 349 354.5H243ZM178 282C164.193 282 153 293.193 153 307C153 320.807 164.193 332 178 332C191.807 332 203 320.807 203 307C203 293.193 191.807 282 178 282ZM243 289.5C233.335 289.5 225.5 297.335 225.5 307C225.5 316.665 233.335 324.5 243 324.5H349C358.665 324.5 366.5 316.665 366.5 307C366.5 297.335 358.665 289.5 349 289.5H243ZM331.922 139.056C324.112 131.245 311.449 131.246 303.639 139.056L239.457 203.236L214.894 183.128C206.347 176.131 193.745 177.388 186.748 185.935C179.751 194.482 181.009 207.083 189.556 214.08L227.429 245.082C235.778 251.917 247.949 251.313 255.579 243.683L331.922 167.34C339.732 159.529 339.732 146.866 331.922 139.056ZM154 68.5C111.198 68.5 76.5002 103.198 76.5 146V219.846C76.5 229.511 84.335 237.346 94 237.346C103.665 237.346 111.5 229.511 111.5 219.846V146C111.5 122.528 130.528 103.5 154 103.5H176.984C186.649 103.5 194.484 95.6648 194.484 86C194.484 76.3352 186.649 68.5 176.984 68.5H154Z" fill="#0F0D0D"/>
</g>
<defs>
<filter id="filter0_d_1_797" x="0" y="0" width="520" height="520" filterUnits="userSpaceOnUse" color-interpolation-filters="sRGB">
<feFlood flood-opacity="0" result="BackgroundImageFix"/>
<feColorMatrix in="SourceAlpha" type="matrix" values="0 0 0 0 0 0 0 0 0 0 0 0 0 0 0 0 0 0 127 0" result="hardAlpha"/>
<feOffset/>
<feGaussianBlur stdDeviation="2"/>
<feColorMatrix type="matrix" values="0 0 0 0 0 0 0 0 0 0 0 0 0 0 0 0 0 0 0.25 0"/>
<feBlend mode="normal" in2="BackgroundImageFix" result="effect1_dropShadow_1_797"/>
<feBlend mode="normal" in="SourceGraphic" in2="effect1_dropShadow_1_797" result="shape"/>
</filter>
</defs>
</svg>
